<svg xmlns="http://www.w3.org/2000/svg" style="display: none;">
  <!-- Instagram Icon -->
  <symbol id="icon-instagram" viewBox="0 0 448 512">
<path d="M224.1 141c-63.6 0-114.9 51.3-114.9 114.9s51.3 114.9 114.9 114.9S339 319.5 339 255.9 287.7 141 224.1 141zm0 189.6c-41.1 0-74.7-33.5-74.7-74.7s33.5-74.7 74.7-74.7 74.7 33.5 74.7 74.7-33.6 74.7-74.7 74.7zm146.4-194.3c0 14.9-12 26.8-26.8 26.8-14.9 0-26.8-12-26.8-26.8s12-26.8 26.8-26.8 26.8 12 26.8 26.8zm76.1 27.2c-1.7-35.9-9.9-67.7-36.2-93.9-26.2-26.2-58-34.4-93.9-36.2-37-2.1-147.9-2.1-184.9 0-35.8 1.7-67.6 9.9-93.9 36.1s-34.4 58-36.2 93.9c-2.1 37-2.1 147.9 0 184.9 1.7 35.9 9.9 67.7 36.2 93.9s58 34.4 93.9 36.2c37 2.1 147.9 2.1 184.9 0 35.9-1.7 67.7-9.9 93.9-36.2 26.2-26.2 34.4-58 36.2-93.9 2.1-37 2.1-147.8 0-184.8zM398.8 388c-7.8 19.6-22.9 34.7-42.6 42.6-29.5 11.7-99.5 9-132.1 9s-102.7 2.6-132.1-9c-19.6-7.8-34.7-22.9-42.6-42.6-11.7-29.5-9-99.5-9-132.1s-2.6-102.7 9-132.1c7.8-19.6 22.9-34.7 42.6-42.6 29.5-11.7 99.5-9 132.1-9s102.7-2.6 132.1 9c19.6 7.8 34.7 22.9 42.6 42.6 11.7 29.5 9 99.5 9 132.1s2.7 102.7-9 132.1z"/> 
  </symbol>

  <!-- Twitter Icon -->
  <symbol id="icon-twitter" viewBox="0 0 512 512">
    <path d="M389.2 48h70.6L305.6 224.2 487 464H345L233.7 318.6 106.5 464H35.8L200.7 275.5 26.8 48H172.4L272.9 180.9 389.2 48zM364.4 421.8h39.1L151.1 88h-42L364.4 421.8z"/>
  </symbol>

  <!-- GitHub Icon -->
<symbol id="icon-github" viewBox="0 0 496 512">
<path d="M165.9 397.4c0 2-2.3 3.6-5.2 3.6-3.3 .3-5.6-1.3-5.6-3.6 0-2 2.3-3.6 5.2-3.6 3-.3 5.6 1.3 5.6 3.6zm-31.1-4.5c-.7 2 1.3 4.3 4.3 4.9 2.6 1 5.6 0 6.2-2s-1.3-4.3-4.3-5.2c-2.6-.7-5.5 .3-6.2 2.3zm44.2-1.7c-2.9 .7-4.9 2.6-4.6 4.9 .3 2 2.9 3.3 5.9 2.6 2.9-.7 4.9-2.6 4.6-4.6-.3-1.9-3-3.2-5.9-2.9zM244.8 8C106.1 8 0 113.3 0 252c0 110.9 69.8 205.8 169.5 239.2 12.8 2.3 17.3-5.6 17.3-12.1 0-6.2-.3-40.4-.3-61.4 0 0-70 15-84.7-29.8 0 0-11.4-29.1-27.8-36.6 0 0-22.9-15.7 1.6-15.4 0 0 24.9 2 38.6 25.8 21.9 38.6 58.6 27.5 72.9 20.9 2.3-16 8.8-27.1 16-33.7-55.9-6.2-112.3-14.3-112.3-110.5 0-27.5 7.6-41.3 23.6-58.9-2.6-6.5-11.1-33.3 2.6-67.9 20.9-6.5 69 27 69 27 20-5.6 41.5-8.5 62.8-8.5s42.8 2.9 62.8 8.5c0 0 48.1-33.6 69-27 13.7 34.7 5.2 61.4 2.6 67.9 16 17.7 25.8 31.5 25.8 58.9 0 96.5-58.9 104.2-114.8 110.5 9.2 7.9 17 22.9 17 46.4 0 33.7-.3 75.4-.3 83.6 0 6.5 4.6 14.4 17.3 12.1C428.2 457.8 496 362.9 496 252 496 113.3 383.5 8 244.8 8zM97.2 352.9c-1.3 1-1 3.3 .7 5.2 1.6 1.6 3.9 2.3 5.2 1 1.3-1 1-3.3-.7-5.2-1.6-1.6-3.9-2.3-5.2-1zm-10.8-8.1c-.7 1.3 .3 2.9 2.3 3.9 1.6 1 3.6 .7 4.3-.7 .7-1.3-.3-2.9-2.3-3.9-2-.6-3.6-.3-4.3 .7zm32.4 35.6c-1.6 1.3-1 4.3 1.3 6.2 2.3 2.3 5.2 2.6 6.5 1 1.3-1.3 .7-4.3-1.3-6.2-2.2-2.3-5.2-2.6-6.5-1zm-11.4-14.7c-1.6 1-1.6 3.6 0 5.9 1.6 2.3 4.3 3.3 5.6 2.3 1.6-1.3 1.6-3.9 0-6.2-1.4-2.3-4-3.3-5.6-2z"/>
</symbol>

  <!-- WordPress Icon -->
<symbol id="icon-wordpress" viewBox="0 0 122.88 122.88">
<path d="M61.44,0C27.51,0,0,27.51,0,61.44c0,33.93,27.51,61.44,61.44,61.44c33.93,0,61.44-27.51,61.44-61.44 C122.88,27.51,95.37,0,61.44,0L61.44,0z M106.37,36.88c0.22,1.63,0.34,3.38,0.34,5.26c0,5.19-0.97,11.03-3.89,18.34l-15.64,45.21 c15.22-8.87,25.46-25.37,25.46-44.25C112.64,52.54,110.37,44.17,106.37,36.88L106.37,36.88z M62.34,65.92l-15.36,44.64 c4.59,1.35,9.44,2.09,14.46,2.09c5.96,0,11.68-1.03,17-2.9c-0.14-0.22-0.26-0.45-0.37-0.71L62.34,65.92L62.34,65.92z M96,58.86 c0-6.33-2.27-10.71-4.22-14.12c-2.6-4.22-5.03-7.79-5.03-12.01c0-4.71,3.57-9.09,8.6-9.09c0.23,0,0.44,0.03,0.66,0.04 c-9.11-8.35-21.25-13.44-34.57-13.44c-17.89,0-33.62,9.18-42.78,23.08c1.2,0.04,2.33,0.06,3.3,0.06c5.35,0,13.65-0.65,13.65-0.65 c2.76-0.16,3.08,3.89,0.33,4.22c0,0-2.77,0.32-5.86,0.49l18.64,55.46l11.21-33.6l-7.98-21.86c-2.76-0.16-5.37-0.49-5.37-0.49 c-2.76-0.16-2.44-4.38,0.32-4.22c0,0,8.45,0.65,13.48,0.65c5.35,0,13.65-0.65,13.65-0.65c2.76-0.16,3.08,3.89,0.33,4.22 c0,0-2.78,0.32-5.86,0.49L87,92.47l5.28-16.74C94.63,68.42,96,63.24,96,58.86L96,58.86z M10.24,61.44 c0,20.27,11.78,37.78,28.86,46.08L14.67,40.6C11.83,46.97,10.24,54.01,10.24,61.44L10.24,61.44z M61.44,3.69 c7.8,0,15.36,1.53,22.48,4.54c3.42,1.45,6.72,3.24,9.81,5.32c3.06,2.07,5.94,4.44,8.55,7.05c2.61,2.61,4.99,5.49,7.05,8.55 c2.09,3.09,3.88,6.39,5.32,9.81c3.01,7.12,4.54,14.68,4.54,22.48c0,7.8-1.53,15.36-4.54,22.48c-1.45,3.42-3.24,6.72-5.32,9.81 c-2.07,3.06-4.44,5.94-7.05,8.55c-2.61,2.61-5.49,4.99-8.55,7.05c-3.09,2.09-6.39,3.88-9.81,5.32c-7.12,3.01-14.68,4.54-22.48,4.54 c-7.8,0-15.36-1.53-22.48-4.54c-3.42-1.45-6.72-3.24-9.81-5.32c-3.06-2.07-5.94-4.44-8.55-7.05c-2.61-2.61-4.99-5.49-7.05-8.55 c-2.09-3.09-3.88-6.39-5.32-9.81C5.21,76.8,3.69,69.24,3.69,61.44c0-7.8,1.53-15.36,4.54-22.48c1.45-3.42,3.24-6.72,5.32-9.81 c2.07-3.06,4.44-5.94,7.05-8.55c2.61-2.61,5.49-4.99,8.55-7.05c3.09-2.09,6.39-3.88,9.81-5.32C46.08,5.21,53.64,3.69,61.44,3.69 L61.44,3.69z"/>
</symbol>
</svg>