<svg xmlns="http://www.w3.org/2000/svg" style="display: none;">
  <!-- Instagram Icon -->
  <symbol id="icon-instagram" viewBox="0 0 448 512">
<path d="M224.1 141c-63.6 0-114.9 51.3-114.9 114.9s51.3 114.9 114.9 114.9S339 319.5 339 255.9 287.7 141 224.1 141zm0 189.6c-41.1 0-74.7-33.5-74.7-74.7s33.5-74.7 74.7-74.7 74.7 33.5 74.7 74.7-33.6 74.7-74.7 74.7zm146.4-194.3c0 14.9-12 26.8-26.8 26.8-14.9 0-26.8-12-26.8-26.8s12-26.8 26.8-26.8 26.8 12 26.8 26.8zm76.1 27.2c-1.7-35.9-9.9-67.7-36.2-93.9-26.2-26.2-58-34.4-93.9-36.2-37-2.1-147.9-2.1-184.9 0-35.8 1.7-67.6 9.9-93.9 36.1s-34.4 58-36.2 93.9c-2.1 37-2.1 147.9 0 184.9 1.7 35.9 9.9 67.7 36.2 93.9s58 34.4 93.9 36.2c37 2.1 147.9 2.1 184.9 0 35.9-1.7 67.7-9.9 93.9-36.2 26.2-26.2 34.4-58 36.2-93.9 2.1-37 2.1-147.8 0-184.8zM398.8 388c-7.8 19.6-22.9 34.7-42.6 42.6-29.5 11.7-99.5 9-132.1 9s-102.7 2.6-132.1-9c-19.6-7.8-34.7-22.9-42.6-42.6-11.7-29.5-9-99.5-9-132.1s-2.6-102.7 9-132.1c7.8-19.6 22.9-34.7 42.6-42.6 29.5-11.7 99.5-9 132.1-9s102.7-2.6 132.1 9c19.6 7.8 34.7 22.9 42.6 42.6 11.7 29.5 9 99.5 9 132.1s2.7 102.7-9 132.1z"/> 
  </symbol>

  <!-- Twitter Icon -->
  <symbol id="icon-twitter" viewBox="0 0 512 512">
    <path d="M389.2 48h70.6L305.6 224.2 487 464H345L233.7 318.6 106.5 464H35.8L200.7 275.5 26.8 48H172.4L272.9 180.9 389.2 48zM364.4 421.8h39.1L151.1 88h-42L364.4 421.8z"/>
  </symbol>
</svg>

  <!-- GitHub Icon -->
  <symbol id="icon-github" viewBox="0 0 496 512">
    <path d="M165.9 397.4c0 2-2.3 3.6-5.2 3.6-3 0-5.2-1.6-5.2-3.6 0-2 2.3-3.6 5.2-3.6 2.9 0 5.2 1.6 5.2 3.6zm-32.2-3.8c-.7 1.6-2.7 2.2-4.2 1.2-1.5-1-2.1-3-1.4-4.6.7-1.6 2.7-2.2 4.2-1.2 1.5 1 2.1 3 1.4 4.6zm44.8-1.7c-1.3 1.4-3.9 1.1-5.2-.6-1.3-1.7-1.1-4.1.3-5.5 1.3-1.4 3.9-1.1 5.2.6 1.3 1.7 1.1 4.1-.3 5.5zm43.6 1.7c-.7-1.6-.1-3.6 1.4-4.6 1.5-1 3.9-.4 4.6 1.2.7 1.6.1 3.6-1.4 4.6-1.5 1-3.9.4-4.6-1.2zm41.4-3.7c0 2-2.3 3.6-5.2 3.6-3 0-5.2-1.6-5.2-3.6 0-2 2.3-3.6 5.2-3.6 2.9 0 5.2 1.6 5.2 3.6zm-12.2-12.3c-.7 1.6-2.7 2.2-4.2 1.2-1.5-1-2.1-3-1.4-4.6.7-1.6 2.7-2.2 4.2-1.2 1.5 1 2.1 3 1.4 4.6zm-19.3-10.9c-1.3 1.4-3.9 1.1-5.2-.6-1.3-1.7-1.1-4.1.3-5.5 1.3-1.4 3.9-1.1 5.2.6 1.3 1.7 1.1 4.1-.3 5.5zM248 8C111 8 0 119 0 256c0 110.5 71.6 204.1 171 237.3 12.5 2.3 17.1-5.4 17.1-12 0-6-0.2-21.8-0.3-42-69.5 15.1-84.1-33.6-84.1-33.6-11.4-29-27.9-36.7-27.9-36.7-22.8-15.6 1.7-15.3 1.7-15.3 25.2 1.8 38.5 25.9 38.5 25.9 22.4 38.5 58.8 27.4 73.2 21 2.3-16.3 8.8-27.4 16-33.8-55.5-6.3-113.9-27.8-113.9-123.6 0-27.3 9.8-49.6 25.9-67.1-2.6-6.3-11.2-31.9 2.5-66.5 0 0 21-6.7 68.8 25.6 20-5.6 41.4-8.4 62.7-8.5 21.3.1 42.7 2.9 62.7 8.5 47.7-32.3 68.7-25.6 68.7-25.6 13.8 34.6 5.2 60.2 2.6 66.5 16.1 17.5 25.9 39.8 25.9 67.1 0 95.9-58.5 117.2-114.3 123.5 9 7.7 17.1 22.9 17.1 46.1 0 33.3-.3 60.1-.3 68.3 0 6.7 4.5 14.6 17.2 12.1C424.4 460.1 496 366.5 496 256 496 119 385 8 248 8z"></path>
  </symbol>
</svg>
